<?xml version="1.0" standalone="no"?><!DOCTYPE svg PUBLIC "-//W3C//DTD SVG 1.1//EN" "http://www.w3.org/Graphics/SVG/1.1/DTD/svg11.dtd"><svg t="1523408007697" class="icon" style="" viewBox="0 0 1024 1024" version="1.1" xmlns="http://www.w3.org/2000/svg" p-id="7648" xmlns:xlink="http://www.w3.org/1999/xlink" width="64" height="64"><defs><style type="text/css"></style></defs><path d="M5.632 971.616c0 19.008 14.048 34.88 31.712 34.88h131.328c17.504 0 31.808-15.84 31.808-34.88V616.256L5.632 743.04v228.576zM279.36 564.672v406.944c0 19.008 14.592 34.88 31.872 34.88h131.392c17.568 0 31.936-15.84 31.936-34.88V549.376l-88.8-53.76-106.4 69.056zM555.712 598.496l-2.304-1.536v374.464c0 19.2 14.272 34.976 31.936 34.976h131.328c17.536 0 31.648-15.776 31.648-34.976V422.848c0-1.568-0.096-3.328-0.352-5.152l-192.256 180.8zM827.52 342.976v628.64c-0.16 19.008 14.336 34.88 31.712 34.88h131.424c17.472 0 31.552-15.84 31.552-34.88v-639.04L943.68 233.472l-116.16 109.504z" p-id="7649"></path><path d="M999.232 17.472l-125.088 8.832s-47.776-1.888-37.664 17.44l64.768 65.344-346.016 288.256-119.104-90.496a29.216 29.216 0 0 0-33.664-0.896L14.56 568.512a29.056 29.056 0 0 0 16.192 53.056 30.944 30.944 0 0 0 16.128-4.896l370.752-251.104 120.896 91.904a28.896 28.896 0 0 0 36.16-0.896l367.2-306.016 51.648 57.632c22.016 21.152 28.672-12.864 28.672-12.864V42.816c0.032-0.224 0.32-18.048-22.976-25.344zM14.048 329.472H268.16c4.8 0 8.672-4.064 8.448-8.928-1.024-19.232-4.96-40.672-20.16-60.896-23.328-30.528-65.6-20.512-86.176-48.48-2.176-3.168-2.592-11.584-2.432-17.888 0-2.24 1.12-4.608 2.784-6.144 17.44-15.712 29.248-43.136 29.248-70.016 0-51.36-7.904-93.824-59.808-93.824-53.568 0-61.088 42.912-60.608 94.56 0.256 26.4 12.032 53.696 29.472 69.28a8.544 8.544 0 0 1 2.784 6.336c0 6.336-0.384 14.624-2.688 17.664-20.32 27.968-61.76 17.216-83.744 48.512-14.464 20.672-18.56 41.696-19.648 60.896a8.448 8.448 0 0 0 8.416 8.928z" p-id="7650"></path></svg>