<?xml version="1.0" standalone="no"?><!DOCTYPE svg PUBLIC "-//W3C//DTD SVG 1.1//EN" "http://www.w3.org/Graphics/SVG/1.1/DTD/svg11.dtd"><svg t="1523352129216" class="icon" style="" viewBox="0 0 1024 1024" version="1.1" xmlns="http://www.w3.org/2000/svg" p-id="1784" xmlns:xlink="http://www.w3.org/1999/xlink" width="64" height="64"><defs><style type="text/css"></style></defs><path d="M821.872466 91.14486l-56.034201 0c-15.498996 0-33.382295 9.538237-33.382295 25.037233s17.883299 30.997991 33.382295 30.997991L821.872466 147.180084c33.382295 0 56.034201 22.651906 56.034201 56.034201l0 644.99399c0 33.382295-22.651906 56.034201-56.034201 56.034201L218.606857 904.242476c-33.382295 0-70.341045-22.651906-70.341045-56.034201L148.265812 203.213261c0-33.382295 22.651906-56.034201 56.034201-56.034201l70.341045 0c15.498996 0 21.459754-15.498996 21.459754-30.997991s-5.960759-25.037233-21.459754-25.037233l-70.341045 0c-78.68713 0-112.069425 48.88129-112.069425 113.261577l0 637.840056c0 69.148893 41.72838 118.030184 118.030184 118.030184l605.649913 0c76.302827 0 118.030184-40.535205 118.030184-118.030184L933.940868 204.405413C933.941891 140.025127 894.598838 91.14486 821.872466 91.14486L821.872466 91.14486zM274.642081 343.896374c0 15.498996 13.114692 28.613688 28.613688 28.613688l420.85514 0c15.498996 0 28.613688-13.114692 28.613688-28.613688s-13.114692-28.613688-28.613688-28.613688l-420.85514 0C287.75575 315.282686 274.642081 328.397379 274.642081 343.896374L274.642081 343.896374zM722.918757 470.27162 303.254745 470.27162c-15.498996 0-28.613688 13.114692-28.613688 28.613688 0 15.498996 13.114692 28.613688 28.613688 28.613688l420.85514 0c15.498996 0 28.613688-13.114692 28.613688-28.613688C751.531422 482.19416 738.416729 470.27162 722.918757 470.27162L722.918757 470.27162zM722.918757 638.375246 303.254745 638.375246c-15.498996 0-28.613688 13.114692-28.613688 28.613688 0 15.498996 13.114692 28.613688 28.613688 28.613688l420.85514 0c15.498996 0 28.613688-13.114692 28.613688-28.613688C751.531422 650.297786 738.416729 638.375246 722.918757 638.375246L722.918757 638.375246zM416.516322 161.485905l195.525162 0c22.651906 0 41.727357-22.651906 41.727357-48.88129s-19.075451-48.88129-42.920532-48.88129L416.516322 63.723324c-23.844058 0-42.920532 22.651906-42.920532 48.88129S392.672264 161.485905 416.516322 161.485905L416.516322 161.485905z" p-id="1785"></path></svg>